<?xml version="1.0" encoding="utf-8"?>
<!-- Generator: Adobe Illustrator 18.1.0, SVG Export Plug-In . SVG Version: 6.00 Build 0)  -->
<!DOCTYPE svg PUBLIC "-//W3C//DTD SVG 1.1//EN" "http://www.w3.org/Graphics/SVG/1.1/DTD/svg11.dtd">
<svg version="1.1" id="Layer_1" xmlns="http://www.w3.org/2000/svg" xmlns:xlink="http://www.w3.org/1999/xlink" x="0px" y="0px"
	 width="32px" height="32px" viewBox="-1630 898 32 32" enable-background="new -1630 898 32 32" xml:space="preserve">
<path fill="#53A08E" d="M-1606.1,905.1c-0.2,0.3-2,2.7-6.3,4.3c-2-3.6-4.1-6.6-4.5-7c0.9-0.2,1.8-0.3,2.8-0.3
	C-1611,902.1-1608.2,903.2-1606.1,905.1L-1606.1,905.1z M-1613.2,914.1c-6.2,2-9.4,7.4-9.7,7.9c-1.9-2.1-3.1-4.9-3.1-8
	c0-0.1,0-0.2,0-0.4c0.5,0,6.3,0.1,12.3-1.7c0.3,0.7,0.7,1.3,1,2C-1612.8,914-1613,914.1-1613.2,914.1L-1613.2,914.1z M-1614,898
	c-8.8,0-16,7.2-16,16s7.2,16,16,16s16-7.2,16-16S-1605.2,898-1614,898z M-1614,928c-7.7,0-14-6.3-14-14s6.3-14,14-14s14,6.3,14,14
	S-1606.3,928-1614,928z M-1610.6,912.9c-0.2-0.6-0.5-1.2-0.8-1.7c4.4-1.8,6.4-4.4,6.7-4.7c1.7,2,2.7,4.6,2.7,7.4
	c-0.4-0.1-4.3-0.9-8.3-0.4C-1610.5,913.3-1610.5,913.1-1610.6,912.9L-1610.6,912.9z M-1614.7,910.1c-5.6,1.5-10.5,1.5-11.1,1.5
	c0.8-3.7,3.3-6.8,6.6-8.4C-1618.8,903.6-1616.6,906.6-1614.7,910.1L-1614.7,910.1z M-1612,916C-1611.9,916-1611.9,916-1612,916
	c1.8,4.3,2.5,8,2.6,9c-1.4,0.6-3,0.9-4.7,0.9c-2.8,0-5.3-0.9-7.3-2.5C-1621.1,923-1618.7,918.3-1612,916L-1612,916z M-1609.6,915.4
	c3.7-0.6,7,0.4,7.4,0.5c-0.5,3.3-2.4,6.2-5.1,8C-1607.4,923.2-1608.1,919.7-1609.6,915.4z"/>
</svg>
