<?xml version="1.0" encoding="utf-8"?>
<!-- Generator: Adobe Illustrator 18.1.0, SVG Export Plug-In . SVG Version: 6.00 Build 0)  -->
<!DOCTYPE svg PUBLIC "-//W3C//DTD SVG 1.1//EN" "http://www.w3.org/Graphics/SVG/1.1/DTD/svg11.dtd">
<svg version="1.1" id="Layer_1" xmlns="http://www.w3.org/2000/svg" xmlns:xlink="http://www.w3.org/1999/xlink" x="0px" y="0px"
	 width="32px" height="32px" viewBox="-1630 898 32 32" enable-background="new -1630 898 32 32" xml:space="preserve">
<path fill="#53A08E" d="M-1614,898c-8.8,0-16,7.2-16,16s7.2,16,16,16s16-7.2,16-16S-1605.2,898-1614,898z M-1622,906h16
	c0.3,0,0.6,0.1,0.8,0.2l-8.8,10.3l-8.8-10.3C-1622.6,906.1-1622.3,906-1622,906L-1622,906z M-1624,920v-12c0,0,0-0.1,0-0.1l5.9,6.8
	l-5.8,5.8C-1624,920.3-1624,920.2-1624,920L-1624,920z M-1606,922h-16c-0.2,0-0.3,0-0.5-0.1l5.7-5.7l2.8,3.3l2.8-3.3l5.7,5.7
	C-1605.7,922-1605.8,922-1606,922z M-1604,920c0,0.2,0,0.3-0.1,0.5l-5.8-5.8l5.9-6.8c0,0,0,0.1,0,0.1V920z"/>
</svg>
